# AST/ASF file generated using VICON BodyLanguage
# -----------------------------------------------
:version 1.10
:name VICON
:units
  mass 1.0
  length 0.45
  angle deg
:documentation
   .ast/.asf automatically generated from VICON data using
   VICON BodyBuilder and BodyLanguage model FoxedUp or BRILLIANT.MOD
:root
   order TX TY TZ RX RY RZ
   axis XYZ
   position 0 0 0  
   orientation 0 0 0 
:bonedata
  begin
     id 1 
     name lhipjoint
     direction 0.630305 -0.712092 0.309259 
     length 2.29033 
     axis 0 0 0  XYZ
  end
  begin
     id 2 
     name lfemur
     direction 0.34202 -0.939693 0  
     length 6.43538  
     axis 0 0 20  XYZ
    dof rx ry rz
    limits (-160.0 20.0)
           (-70.0 70.0)
           (-60.0 70.0)
  end
  begin
     id 3 
     name ltibia
     direction 0.34202 -0.939693 0   
     length 7.43097   
     axis 0 0 20   XYZ
    dof rx
    limits (-10.0 170.0)
  end
  begin
     id 4 
     name lfoot
     direction 0.0334653 -0.0919451 0.995202   
     length 1.78438   
     axis -90 7.62852e-016 20   XYZ
    dof rx rz
    limits (-45.0 90.0)
           (-70.0 20.0)
  end
  begin
     id 5 
     name ltoes
     direction 1.53535e-011 -4.21933e-011 1   
     length 0.90832   
     axis -90 7.62852e-016 20   XYZ
    dof rx
    limits (-90.0 20.0)
  end
  begin
     id 6 
     name rhipjoint
     direction -0.682059 -0.67077 0.291312   
     length 2.43143  
     axis 0 0 0  XYZ 
  end
  begin
     id 7 
     name rfemur
     direction -0.34202 -0.939693 0   
     length 6.63488   
     axis 0 0 -20   XYZ
    dof rx ry rz
    limits (-160.0 20.0)
           (-70.0 70.0)
           (-70.0 60.0)
  end
  begin
     id 8 
     name rtibia
     direction -0.34202 -0.939693 0   
     length 6.86532   
     axis 0 0 -20   XYZ
    dof rx
    limits (-10.0 170.0)
 end
 begin
     id 9 
     name rfoot
     direction -0.105199 -0.289033 0.951521   
     length 1.77126  
     axis -90 -7.62852e-016 -20   XYZ
    dof rx rz
    limits (-45.0 90.0)
           (-20.0 70.0)
  end
  begin
     id 10 
     name rtoes
     direction -1.53551e-011 -4.21978e-011 1   
     length 0.889273   
     axis -90 -7.62852e-016 -20   XYZ
    dof rx
    limits (-90.0 20.0)
  end
  begin
     id 11 
     name lowerback
     direction -0.0514305 0.998089 0.034245   
     length 2.02077   
     axis 0 0 0   XYZ
    dof rx ry rz
    limits (-20.0 45.0)
           (-30.0 30.0)
           (-30.0 30.0)
  end
  begin
     id 12 
     name upperback
     direction 0.0203189 0.999449 -0.0262315   
     length 2.01413   
     axis 0 0 0   XYZ
    dof rx ry rz
    limits (-20.0 45.0)
           (-30.0 30.0)
           (-30.0 30.0)
  end
  begin
     id 13 
     name thorax
     direction 0.0452736 0.998142 -0.0407729   
     length 2.02986   
     axis 0 0 0   XYZ
    dof rx ry rz
    limits (-20.0 45.0)
           (-30.0 30.0)
           (-30.0 30.0)
  end
  begin
     id 14 
     name lowerneck
     direction -0.0180464 0.999645 -0.0195774   
     length 1.59034   
     axis 0 0 0   XYZ
    dof rx ry rz
    limits (-20.0 45.0)
           (-30.0 30.0)
           (-30.0 30.0)
  end
  begin
     id 15 
     name upperneck
     direction 0.0732272 0.979935 -0.18538   
     length 1.57486   
     axis 0 0 0   XYZ
    dof rx ry rz
    limits (-20.0 45.0)
           (-30.0 30.0)
           (-30.0 30.0)
  end
  begin
     id 16
     name head
     direction 0.0252963 0.997909 -0.059472  
     length 1.60334  
     axis 0 0 0   XYZ
    dof rx ry rz
    limits (-20.0 45.0)
           (-30.0 30.0)
           (-30.0 30.0)
  end
  begin
     id 17 
     name lclavicle
     direction 0.943819 0.330449 0.00315172  
     length 3.50322  
     axis 0 0 0   XYZ
    dof ry rz
    limits (-20.0 10.0)
           (0.0 20.0)
  end
  begin
     id 18 
     name lhumerus
     direction 1 -4.48949e-011 2.22502e-028   
     length 4.63208   
     axis 180 -30 -90   XYZ
    dof rx ry rz
    limits (-60.0 90.0)
           (-90.0 90.0)
           (-90.0 90.0)
  end
  begin
     id 19
     name lradius
     direction 1 -4.48967e-011 -4.10197e-027   
     length 3.41924   
     axis 180 -30 -90   XYZ
    dof rx
    limits (-10.0 170.0)
  end
  begin
     id 20
     name lwrist
     direction 1 -4.48987e-011 -1.24264e-027   
     length 1.70962   
     axis 2.50585e-015 90 90   XYZ
    dof ry
    limits (-180.0 0.0)
 end
  begin
     id 21 
     name lhand
     direction 1 -4.48983e-011 -2.48528e-027   
     length 0.62537   
     axis 1.58582e-015 90 90   XYZ
    dof rx rz
    limits (-90.0 90.0)
           (-45.0 45.0)
  end
  begin
     id 22 
     name lfingers
     direction 1 -4.48896e-011 -4.97056e-027   
     length 0.50419   
     axis 3.17164e-015 90 90   XYZ
    dof rx
    limits (0.0 90.0)
  end
  begin
     id 23
     name lthumb
     direction 0.707107 -6.34803e-011 0.707107   
     length 0.723919   
     axis -90 45 2.85299e-015   XYZ
    dof rx rz
    limits (-45.0 45.0)
           (-45.0 45.0)
  end
  begin
     id 24 
     name rclavicle
     direction -0.964499 0.260664 -0.0423695   
     length 3.91997  
     axis 0 0 0   XYZ 
    dof ry rz
    limits (-10.0 20.0)
           (-20.0 0.0)
  end
  begin
     id 25 
     name rhumerus
     direction -1 -4.48957e-011 -1.98656e-027  
     length 4.4064   
     axis 180 30 90   XYZ
    dof rx ry rz
    limits (-90.0 60.0)
           (-90.0 90.0)
           (-90.0 90.0)
  end
  begin
     id 26 
     name rradius
     direction -1 -4.48968e-011 1.96972e-027   
     length 3.44675   
     axis 180 30 90   XYZ
    dof rx
    limits (-10.0 170.0)
  end
  begin
     id 27 
     name rwrist
     direction -1 -4.48974e-011 -1.24264e-027   
     length 1.72338   
     axis 2.50585e-015 -90 -90   XYZ
    dof ry
    limits (-180.0 0.0)
  end
  begin
     id 28
     name rhand
     direction -1 -4.48901e-011 -2.48528e-027   
     length 0.513674   
     axis 1.58582e-015 -90 -90   XYZ
    dof rx rz
    limits (-90.0 90.0)
           (-45.0 45.0)
  end
  begin
     id 29
     name rfingers
     direction -1 -4.48946e-011 -4.97056e-027   
     length 0.414137   
     axis 3.17164e-015 -90 -90   XYZ
    dof rx
    limits (0.0 90.0)
  end
  begin
     id 30
     name rthumb
     direction -0.707107 -6.34859e-011 0.707107   
     length 0.59462   
     axis -90 -45 -2.85299e-015   XYZ
    dof rx rz
    limits (-45.0 45.0)
           (-45.0 45.0)
  end
:hierarchy
  begin
    root lhipjoint rhipjoint lowerback
    lhipjoint lfemur
    lfemur ltibia
    ltibia lfoot
    lfoot ltoes
    rhipjoint rfemur
    rfemur rtibia
    rtibia rfoot
    rfoot rtoes
    lowerback upperback
    upperback thorax
    thorax lowerneck lclavicle rclavicle
    lowerneck upperneck
    upperneck head
    lclavicle lhumerus
    lhumerus lradius
    lradius lwrist
    lwrist lhand lthumb
    lhand lfingers
    rclavicle rhumerus
    rhumerus rradius
    rradius rwrist
    rwrist rhand rthumb
    rhand rfingers
  end

#!OML:ASF E:\inclinewalkrobotboard\Project 1\Capture day 1\Session 1\subject1.ASF
:FULLY-SPECIFIED
:DEGREES
111
root 11.783 16.4161 3.65332 -33.1866 -83.2397 42.7694
lowerback -2.86538 0.484408 -5.61747
upperback -0.322242 0.817429 -0.989823
thorax 1.2113 0.375627 2.16091
lowerneck -8.96332 2.96479 -3.94302
upperneck 13.0788 4.31521 1.43716
head 5.294 1.98232 1.39332
rclavicle 2.38542e-015 3.8763e-015
rhumerus -47.1846 -13.7955 -82.3899
rradius 104.79
rwrist -8.13552
rhand -21.8659 -29.7999
rfingers 7.12502
rthumb 4.53829 -59.7312
lclavicle 2.38542e-015 3.8763e-015
lhumerus -37.3162 -13.9628 100.359
lradius 98.7052
lwrist -4.8574
lhand -54.6493 -36.4007
lfingers 7.12502
lthumb -27.0446 -8.31723
rfemur -7.53667 4.30951 7.45759
rtibia 13.3277
rfoot -19.1938 -8.15993
rtoes -36.9256
lfemur -21.6974 -6.30446 -7.34945
ltibia 32.7417
lfoot -19.8606 14.5877
ltoes -67.4878
112
root 11.7824 16.41 3.72943 -35.1527 -83.3501 44.7249
lowerback -2.56985 0.500104 -5.56775
upperback -0.309409 0.816805 -1.08509
thorax 1.06085 0.378935 2.03168
lowerneck -8.68375 3.35279 -4.18619
upperneck 12.8291 4.83026 1.66065
head 5.14245 2.2423 1.5256
rclavicle 7.3364e-015 -9.98893e-015
rhumerus -46.9444 -13.4365 -82.2618
rradius 104.538
rwrist -8.00906
rhand -21.5234 -29.9306
rfingers 7.12502
rthumb 4.86895 -59.8546
lclavicle 7.3364e-015 -9.98893e-015
lhumerus -37.1859 -14.0801 100.473
lradius 98.8
lwrist -4.83009
lhand -54.7215 -37.0061
lfingers 7.12502
lthumb -27.1137 -8.93341
rfemur -7.55321 4.39702 7.05323
rtibia 13.356
rfoot -19.1989 -8.33
rtoes -37.8404
lfemur -22.0517 -6.14745 -6.1579
ltibia 32.4667
lfoot -19.6402 15.0583
ltoes -66.9235
113
root 11.7748 16.408 3.80959 -37.2956 -83.5204 46.7679
lowerback -2.21013 0.556506 -5.61645
upperback -0.27922 0.86886 -1.15441
thorax 0.886502 0.408386 1.98493
lowerneck -8.82885 3.36609 -3.71651
upperneck 12.9356 4.85441 1.17861
head 5.22424 2.24099 1.30737
rclavicle -1.71452e-014 1.74931e-014
rhumerus -46.6747 -13.2278 -82.0463
rradius 104.324
rwrist -8.31492
rhand -21.1052 -30.2121
rfingers 7.12502
rthumb 5.27275 -60.1265
lclavicle -1.71452e-014 1.74931e-014
lhumerus -37.1929 -14.2117 100.656
lradius 98.9979
lwrist -4.7938
lhand -54.5148 -37.0922
lfingers 7.12502
lthumb -26.916 -8.98887
rfemur -7.46481 4.8346 6.69952
rtibia 13.3653
rfoot -19.2439 -8.63001
rtoes -38.472
lfemur -22.1249 -6.10233 -4.77947
ltibia 31.6883
lfoot -19.3712 15.0894
ltoes -66.5374
114
root 11.7567 16.4087 3.89735 -39.3191 -83.4631 48.6707
lowerback -1.90066 0.610956 -5.85098
upperback -0.225858 0.924966 -1.29165
thorax 0.762055 0.436938 1.97239
lowerneck -8.75163 3.63698 -3.45047
upperneck 12.9645 5.23149 0.791237
head 5.22911 2.40966 1.16834
rclavicle 8.98103e-015 9.95166e-015
rhumerus -46.4479 -13.2833 -81.8112
rradius 104.176
rwrist -8.72667
rhand -20.7471 -31.099
rfingers 7.12502
rthumb 5.61853 -61.0046
lclavicle 8.98103e-015 9.95166e-015
lhumerus -37.226 -14.6949 100.796
lradius 99.1795
lwrist -4.60197
lhand -54.2823 -37.0611
lfingers 7.12502
lthumb -26.6935 -8.92359
rfemur -7.17172 5.34763 6.19952
rtibia 13.2555
rfoot -19.2909 -9.15578
rtoes -39.2535
lfemur -22.1159 -6.04032 -3.5338
ltibia 30.6626
lfoot -18.8315 14.9873
ltoes -66.5409
115
root 11.7348 16.4058 3.99832 -40.8922 -83.1388 50.2436
lowerback -1.73461 0.541217 -6.19989
upperback -0.17334 0.826028 -1.4506
thorax 0.727902 0.384931 1.99952
lowerneck -8.73278 3.85517 -3.24424
upperneck 12.9462 5.5498 0.396918
head 5.2315 2.54735 1.03374
rclavicle 4.62485e-015 4.87022e-015
rhumerus -46.1989 -13.2326 -81.6319
rradius 104.059
rwrist -8.86237
rhand -21.2334 -30.3548
rfingers 7.12502
rthumb 5.14899 -60.2722
lclavicle 4.62485e-015 4.87022e-015
lhumerus -37.226 -15.1872 100.871
lradius 99.3488
lwrist -4.48441
lhand -54.4783 -37.0059
lfingers 7.12502
lthumb -26.8811 -8.89715
rfemur -6.9287 5.77166 5.47626
rtibia 13.2183
rfoot -19.4674 -9.80226
rtoes -39.3631
lfemur -22.299 -6.01779 -2.51338
ltibia 29.6104
lfoot -18.0895 15.0298
ltoes -66.5307
116
root 11.7116 16.3963 4.11101 -41.4068 -82.7864 50.8649
lowerback -1.66726 0.407995 -6.55854
upperback -0.138007 0.649512 -1.50843
thorax 0.737298 0.293755 2.13567
lowerneck -8.74351 3.98465 -3.24624
upperneck 12.7896 5.76785 0.0772345
head 5.1912 2.63474 0.94754
rclavicle -2.45002e-014 -4.67144e-015
rhumerus -46.0687 -13.11 -81.4059
rradius 104.036
rwrist -8.80692
rhand -21.0889 -30.1154
rfingers 7.12502
rthumb 5.28847 -60.0295
lclavicle -2.45002e-014 -4.67144e-015
lhumerus -37.1353 -15.5983 101.055
lradius 99.4253
lwrist -4.54919
lhand -54.8984 -37.0381
lfingers 7.12502
lthumb -27.283 -8.99184
rfemur -6.82561 6.27694 4.7743
rtibia 13.3102
rfoot -19.8403 -10.4729
rtoes -38.1466
lfemur -22.5981 -6.06487 -1.43674
ltibia 28.4606
lfoot -16.9045 15.6288
ltoes -66.4121
117
root 11.6846 16.3832 4.23701 -41.3511 -82.48 50.9129
lowerback -1.56096 0.304018 -6.78279
upperback -0.140335 0.503767 -1.59701
thorax 0.686383 0.220839 2.16553
lowerneck -8.69683 4.04993 -3.16794
upperneck 12.5394 5.87309 -0.162226
head 5.11416 2.67958 0.862987
rclavicle -1.21414e-014 -2.26615e-014
rhumerus -46.1059 -13.175 -81.1485
rradius 104.115
rwrist -8.74554
rhand -20.8378 -30.3378
rfingers 7.12502
rthumb 5.53095 -60.2456
lclavicle -1.21414e-014 -2.26615e-014
lhumerus -37.0065 -16.079 101.272
lradius 99.4149
lwrist -4.63837
lhand -55.0817 -36.9522
lfingers 7.12502
lthumb -27.4583 -8.93363
rfemur -6.71083 6.73714 4.09515
rtibia 13.4195
rfoot -20.2212 -11.0481
rtoes -37.3327
lfemur -22.8157 -6.1818 -0.333988
ltibia 27.1644
lfoot -16.3923 15.469
ltoes -64.1945
118
root 11.655 16.3656 4.37995 -41.1124 -82.1752 50.7819
lowerback -1.43474 0.287165 -6.82335
upperback -0.152042 0.467459 -1.79407
thorax 0.607719 0.203625 1.98357
lowerneck -8.4235 4.30837 -3.27098
upperneck 12.2118 6.21564 -0.130927
head 4.95707 2.85352 0.898529
rclavicle 1.4797e-014 -2.18663e-014
rhumerus -46.2343 -13.5102 -80.784
rradius 104.273
rwrist -8.8351
rhand -20.8521 -30.4132
rfingers 7.12502
rthumb 5.51716 -60.3213
lclavicle 1.4797e-014 -2.18663e-014
lhumerus -36.9033 -16.8824 101.498
lradius 99.5528
lwrist -4.66346
lhand -55.1657 -36.4556
lfingers 7.12502
lthumb -27.5386 -8.44982
rfemur -6.56519 7.18413 3.36031
rtibia 13.5143
rfoot -20.5938 -11.6009
rtoes -36.9035
lfemur -23.0373 -6.26841 0.667378
ltibia 25.8877
lfoot -15.7604 15.6063
ltoes -61.3328
119
root 11.6216 16.3416 4.53606 -40.643 -81.8473 50.4031
lowerback -1.306 0.314052 -6.88645
upperback -0.134571 0.49102 -1.95905
thorax 0.552212 0.215109 1.84838
lowerneck -8.36623 4.45513 -3.3907
upperneck 12.0629 6.40789 0.00979625
head 4.88946 2.95596 0.968469
rclavicle 5.30507e-015 -9.83984e-015
rhumerus -46.4393 -13.9355 -80.2392
rradius 104.486
rwrist -9.0614
rhand -21.0286 -29.9867
rfingers 7.12502
rthumb 5.34675 -59.8992
lclavicle 5.30507e-015 -9.83984e-015
lhumerus -36.7837 -17.872 101.818
lradius 99.7299
lwrist -4.57856
lhand -55.0758 -36.3273
lfingers 7.12502
lthumb -27.4527 -8.3079
rfemur -6.29118 7.68061 2.62645
rtibia 13.5039
rfoot -20.919 -12.3902
rtoes -37.0052
lfemur -23.2848 -6.06568 1.53651
ltibia 24.7234
lfoot -15.7268 15.4459
ltoes -57.0498
120
root 11.5851 16.3126 4.7029 -39.9034 -81.4563 49.7073
lowerback -1.0859 0.235215 -7.11474
upperback -0.146077 0.36626 -1.99925
thorax 0.425684 0.155646 1.93072
lowerneck -8.46843 4.3154 -2.69481
upperneck 11.8643 6.2577 -1.00388
head 4.90476 2.85044 0.537816
rclavicle -1.05604e-015 -1.16289e-014
rhumerus -46.6779 -14.0389 -79.581
rradius 104.669
rwrist -9.38651
rhand -21.0062 -30.1359
rfingers 7.12502
rthumb 5.36839 -60.0479
lclavicle -1.05604e-015 -1.16289e-014
lhumerus -36.5883 -18.4636 102.217
lradius 99.6281
lwrist -4.56927
lhand -54.7982 -36.8071
lfingers 7.12502
lthumb -27.1871 -8.74586
rfemur -5.84794 7.88518 1.85897
rtibia 13.3433
rfoot -20.9792 -13.345
rtoes -39.0973
lfemur -23.535 -5.57698 2.19332
ltibia 23.6704
lfoot -14.272 16.7679
ltoes -57.9682
121
root 11.5459 16.2773 4.88309 -38.7605 -81.0946 48.5838
lowerback -0.848969 0.157743 -7.31268
upperback -0.180949 0.239265 -2.01632
thorax 0.26653 0.0971655 2.02062
lowerneck -8.33074 4.44683 -2.98715
upperneck 11.5873 6.44971 -0.900329
head 4.78172 2.94638 0.619861
rclavicle -7.82715e-016 -1.58034e-014
rhumerus -46.9522 -14.1658 -78.784
rradius 104.724
rwrist -9.6301
rhand -21.0883 -30.403
rfingers 7.12502
rthumb 5.28906 -60.317
lclavicle -7.82715e-016 -1.58034e-014
lhumerus -36.4 -19.0394 102.676
lradius 99.4774
lwrist -4.63648
lhand -54.7167 -37.2143
lfingers 7.12502
lthumb -27.1092 -9.14092
rfemur -5.29936 7.90112 1.09612
rtibia 13.0743
rfoot -21.0183 -14.0556
rtoes -40.734
lfemur -23.7872 -4.92684 2.72386
ltibia 22.7192
lfoot -13.2031 17.6422
ltoes -59.2541
122
root 11.5026 16.2357 5.07632 -37.4105 -80.8358 47.1985
lowerback -0.609043 0.166936 -7.38939
upperback -0.170746 0.227753 -2.08911
thorax 0.143136 0.0942574 1.98739
lowerneck -8.28605 4.54214 -2.89205
upperneck 11.4173 6.56153 -0.898066
head 4.72342 3.01072 0.608416
rclavicle -2.25621e-014 2.37548e-014
rhumerus -47.2313 -14.6106 -77.9009
rradius 104.714
rwrist -9.99128
rhand -21.0949 -30.0278
rfingers 7.12502
rthumb 5.28267 -59.942
lclavicle -2.25621e-014 2.37548e-014
lhumerus -36.2346 -19.9342 103.142
lradius 99.4522
lwrist -4.59889
lhand -54.8671 -37.5693
lfingers 7.12502
lthumb -27.2531 -9.51842
rfemur -4.65223 7.99577 0.403471
rtibia 12.7623
rfoot -21.1184 -14.6545
rtoes -41.5326
lfemur -23.9906 -4.25105 3.21264
ltibia 21.8902
lfoot -12.4665 18.1398
ltoes -59.8832
